<?xml version="1.0" encoding="UTF-8"?>
<svg width="300" height="400" viewBox="0 0 300 400" fill="none" xmlns="http://www.w3.org/2000/svg">
  <path d="M250 50C180 20 150 80 140 120C130 160 160 200 200 220C240 240 280 220 290 180C300 140 270 60 250 50Z" fill="#2D5648" fill-opacity="0.3"/>
  <path d="M200 150C130 120 100 180 90 220C80 260 110 300 150 320C190 340 230 320 240 280C250 240 220 160 200 150Z" fill="#2D5648" fill-opacity="0.2"/>
  <path d="M150 250C80 220 50 280 40 320C30 360 60 400 100 420C140 440 180 420 190 380C200 340 170 260 150 250Z" fill="#2D5648" fill-opacity="0.1"/>
</svg> 