<svg width="25" height="25" viewBox="0 0 25 25" fill="none" xmlns="http://www.w3.org/2000/svg">
<mask id="mask0_239_363" style="mask-type:alpha" maskUnits="userSpaceOnUse" x="0" y="0" width="25" height="25">
<rect x="0.824219" y="0.398438" width="24" height="24" fill="#D9D9D9"/>
</mask>
<g mask="url(#mask0_239_363)">
<path d="M2.82422 19.3984V17.3984H22.8242V19.3984H2.82422ZM3.82422 16.3984V15.3984C3.82422 13.2651 4.47839 11.3818 5.78672 9.74844C7.09505 8.1151 8.77422 7.08177 10.8242 6.64844V6.39844C10.8242 5.84844 11.0201 5.3776 11.4117 4.98594C11.8034 4.59427 12.2742 4.39844 12.8242 4.39844C13.3742 4.39844 13.8451 4.59427 14.2367 4.98594C14.6284 5.3776 14.8242 5.84844 14.8242 6.39844V6.64844C16.8909 7.08177 18.5742 8.1151 19.8742 9.74844C21.1742 11.3818 21.8242 13.2651 21.8242 15.3984V16.3984H3.82422ZM5.87422 14.3984H19.7742C19.5409 12.6651 18.7659 11.2318 17.4492 10.0984C16.1326 8.9651 14.5909 8.39844 12.8242 8.39844C11.0576 8.39844 9.52005 8.9651 8.21172 10.0984C6.90339 11.2318 6.12422 12.6651 5.87422 14.3984Z" fill="#1C1B1F"/>
</g>
</svg>
