<svg width="25" height="25" viewBox="0 0 25 25" fill="none" xmlns="http://www.w3.org/2000/svg">
<mask id="mask0_220_351" style="mask-type:alpha" maskUnits="userSpaceOnUse" x="0" y="0" width="25" height="25">
<rect x="0.824219" y="0.398438" width="24" height="24" fill="#D9D9D9"/>
</mask>
<g mask="url(#mask0_220_351)">
<path d="M20.4242 21.3984L14.1242 15.0984C13.6242 15.4984 13.0492 15.8151 12.3992 16.0484C11.7492 16.2818 11.0576 16.3984 10.3242 16.3984C8.50755 16.3984 6.97005 15.7693 5.71172 14.5109C4.45339 13.2526 3.82422 11.7151 3.82422 9.89844C3.82422 8.08177 4.45339 6.54427 5.71172 5.28594C6.97005 4.0276 8.50755 3.39844 10.3242 3.39844C12.1409 3.39844 13.6784 4.0276 14.9367 5.28594C16.1951 6.54427 16.8242 8.08177 16.8242 9.89844C16.8242 10.6318 16.7076 11.3234 16.4742 11.9734C16.2409 12.6234 15.9242 13.1984 15.5242 13.6984L21.8242 19.9984L20.4242 21.3984ZM10.3242 14.3984C11.5742 14.3984 12.6367 13.9609 13.5117 13.0859C14.3867 12.2109 14.8242 11.1484 14.8242 9.89844C14.8242 8.64844 14.3867 7.58594 13.5117 6.71094C12.6367 5.83594 11.5742 5.39844 10.3242 5.39844C9.07422 5.39844 8.01172 5.83594 7.13672 6.71094C6.26172 7.58594 5.82422 8.64844 5.82422 9.89844C5.82422 11.1484 6.26172 12.2109 7.13672 13.0859C8.01172 13.9609 9.07422 14.3984 10.3242 14.3984Z" fill="#1C1B1F"/>
</g>
</svg>
